<svg width="323" height="512" viewBox="0 0 323 512" fill="none" xmlns="http://www.w3.org/2000/svg">
<path d="M225.284 147.476L224.381 146.209V146.752L225.284 147.476Z" fill="#E4FF21"/>
<path d="M245.371 179.143L263.467 188.372L255.324 171.181H242.476L233.609 147.476L216.781 133.724L213.524 128.114L213.343 120.153L237.048 124.314L213.343 111.467H102.057L78.3523 124.314L102.057 120.153L101.876 128.114L90.1142 147.476L81.4285 171.181H68.3999L60.438 188.372L78.3523 179.143L99.3428 146.029L102.962 158.876L141.686 173.353L150.914 164.486L148.381 152.181L146.39 143.133L153.809 160.143L155.619 174.8H168.105L169.914 160.143L177.333 143.133L172.99 164.486L182.219 173.353L220.943 158.876L224.381 146.753V146.21V146.029L245.371 179.143Z" fill="#FFE255"/>
<path d="M189.095 172.991V183.305H200.495V179.143H211.533L221.847 168.105L211.171 172.991H189.095Z" fill="white"/>
<path d="M134.629 183.305V172.991H112.552L102.057 168.105L112.19 179.143H123.41V183.305H134.629Z" fill="white"/>
<path d="M174.076 288.076L182.219 276.314H141.686L149.829 288.076H174.076Z" fill="#FF4772"/>
<path d="M194.524 351.771V312.867L180.048 292.057H171.181L171.724 314.133L156.705 292.057H143.676L129.381 312.867V351.771L122.143 317.029L83.4189 367.333V410.4L93.5523 380.362L94.638 400.267L119.248 422.886L119.79 436.638L123.952 416.371L108.39 399.543L107.848 380.362L119.79 364.257L118.705 397.19L133.724 411.848L119.248 471.924L140.781 423.61L152.181 480.61L172.448 513L164.486 480.61L174.8 416.914V451.657L183.124 423.61L204.657 471.924L188.552 413.295L205.2 397.19L203.933 364.257L216.057 380.362L215.333 399.543L199.771 416.371L203.933 436.638L204.657 422.886L229.086 400.267L230.352 380.362L240.486 410.4V367.333L201.581 317.029L194.524 351.771Z" fill="#DAD8FF"/>
<path d="M69.1239 135.714H85.4096L92.4667 129.562H74.7334L64.0572 115.99H49.4001L28.7715 161.952L54.4667 127.028L69.1239 135.714Z" fill="#DAD8FF"/>
<path d="M47.2286 165.209L56.2762 154.352H70.7524L83.419 141.686L54.4667 143.133L25.3333 173.714H0L25.3333 180.59L47.2286 165.209Z" fill="white"/>
<path d="M11.4001 229.085L35.1049 198.143L58.0859 179.143L62.6097 161.952L32.0287 182.943L11.4001 229.085Z" fill="#DAD8FF"/>
<path d="M258.943 115.628L248.267 129.2H230.533L237.591 135.533H253.695L268.533 126.667L294.229 161.59L273.6 115.628H258.943Z" fill="#DAD8FF"/>
<path d="M239.581 141.324L252.248 153.99H266.543L275.591 164.848L297.486 180.228L323 173.352H297.486L268.533 142.771L239.581 141.324Z" fill="white"/>
<path d="M287.895 197.962L311.419 228.724L290.971 182.581L260.39 161.59L264.733 178.962L287.895 197.962Z" fill="white"/>
<path d="M92.4666 106.4L83.419 90.1143H60.619L34.2 110.743L62.6095 98.0762L92.4666 106.4Z" fill="#DAD8FF"/>
<path d="M225.286 106.4L254.962 98.0762L283.371 110.743L256.952 90.1143H234.152L225.286 106.4Z" fill="#DAD8FF"/>
<path d="M289.705 220.219L275.771 213.705L274.867 200.134L268.714 219.314L281.381 229.991V238.314L258.581 219.676L266 234.695L262.2 257.134L248.267 281.381L256.229 258.038L255.686 231.981L232.162 204.476L248.448 235.238L247.905 257.134L227.095 230.534V218.772L234.152 193.076L231.8 179.143H221.124L188.371 192.714L213.162 197.419L189.095 195.972L203.39 206.467L186.562 205.924L171.905 187.648H152.181L137.524 205.924L120.695 206.467L134.99 195.972L110.924 197.419L135.714 192.714L103.143 179.143H92.4667L90.1143 193.076L97.1714 218.772V230.534L76.1809 257.134L75.2762 235.238L91.5619 204.476L68.219 231.981L67.8571 258.038L75.819 281.381L61.8857 257.134L58.0857 234.695L65.5047 219.676L42.7047 238.314V229.991L55.3714 219.314L49.219 200.134L48.3143 213.705L34.3809 220.219L5.06665 269.438L34.3809 244.105L45.9619 259.486L50.1238 237.953V265.095L60.8 272.153L63.1524 285.905L57.1809 289.886L42.1619 285.905L57.1809 299.295L69.6666 291.334L72.9238 308.162L65.5047 322.638L67.3143 332.41L80.8857 313.229L67.3143 339.829L72.3809 380.362V356.476L94.2762 326.619V272.515L104.048 303.819L113.819 273.962L119.429 289.343L124.133 271.248L139.514 261.838L124.133 280.476L148.924 261.838L155.8 267.448H167.743L174.8 261.838L199.59 280.476L184.21 261.838L199.59 271.248L204.295 289.343L209.905 273.962L219.676 303.819L229.448 272.515V326.619L251.343 356.476V380.181L256.41 339.648L242.838 313.048L256.41 332.229L258.219 322.457L250.8 307.981L254.057 291.153L266.724 299.114L281.743 285.724L266.724 289.705L260.571 285.724L262.924 271.972L273.6 264.914V237.772L277.762 259.305L289.524 243.924V243.562L318.838 268.895L289.524 219.676V220.219H289.705ZM192.171 242.657H183.848L183.486 246.819L164.486 260.21H159.419L140.419 246.819L140.057 242.657H131.733L108.029 264.553L122.143 233.067L129.019 232.162L144.038 219.314H152V223.114H146.39L139.876 229.086V241.21L146.39 241.572L153.629 247.181H170.095L177.333 241.572L183.848 241.21V229.086L177.333 223.114H171.724V219.314H179.686L194.705 232.162L201.581 233.067L215.695 264.553L192.171 242.657Z" fill="#FFE255"/>
<path d="M230.533 29.3143L229.086 30.7619V30.581L228.905 30.9429L198.867 59.7143L215.876 53.7429L202.124 77.4476H179.324L169.371 39.8095L183.667 49.4L158.876 0L132.638 50.3048L148.019 39.8095L138.067 76.7238H115.628L100.247 49.9429L118.162 56.2762L86.4951 25.8762L103.867 96.6286H212.981L227.819 35.8286L230.533 29.3143Z" fill="#AB9300"/>
<path d="M49.2191 200.133L48.1334 213.705L34.2 220.219L4.88574 269.438L34.2 244.105L45.9619 259.486L50.1238 237.952V265.095L60.8 271.971L63.1524 285.724L57.181 289.705L42.1619 285.724L57.181 299.114L69.6667 291.152L72.9238 307.981L65.5048 322.457L67.3143 332.229L80.8857 313.048L67.3143 339.648L72.5619 380.362V356.476L94.4572 326.619V272.514L104.229 303.819L114 273.962L119.61 289.343L124.314 271.067L139.695 261.838L124.314 280.476L148.924 261.838L155.981 267.448H167.924L174.8 261.838L199.591 280.476L184.21 261.838L199.591 271.067L204.295 289.343L209.905 273.962L219.676 303.819L229.448 272.514V326.619L251.343 356.476V380.362L256.41 339.648L243.019 313.048L256.41 332.229L258.4 322.457L250.981 307.981L254.238 291.152L266.724 299.114L281.743 285.724L266.724 289.705L260.752 285.724L262.562 274.324L262.924 271.971L273.781 265.095V237.952L277.943 259.486L289.705 243.743L319.019 269.076L289.705 220.219L275.591 213.705L274.686 200.133L268.533 219.314L281.2 229.99V238.495L258.4 219.857L265.819 234.695L262.019 257.133L248.086 281.381L256.048 258.038L255.505 231.981L232.162 204.476L248.629 235.238L248.086 257.133L227.095 230.533L233.791 251.162L221.848 241.933L226.552 251.343L215.695 264.552L192.171 242.657H183.667L183.486 246.819L164.486 260.209H159.419L140.419 246.819L140.057 242.657H131.733L108.029 264.552L91.2 256.409L96.8096 230.533L75.8191 257.133L75.2762 235.238L91.5619 204.476L68.2191 231.981L67.8572 258.038L75.8191 281.381L61.7048 257.133L58.0857 234.695L65.5048 219.857L42.7048 238.495V229.99L55.1905 219.314L49.2191 200.133Z" fill="#DAD8FF"/>
<path d="M171.181 276.314L166.476 284.819H147.476L149.828 288.076H174.076L182.219 276.314H171.181Z" fill="#FFBDCE"/>
<path d="M118.162 56.276L86.4951 25.876L110.743 53.5617L118.162 56.276Z" fill="#FAF4C7"/>
<path d="M95.7237 36.3712L92.4665 36.9141L116.714 96.6284H103.867L86.4951 25.876L95.7237 36.3712Z" fill="#A44800"/>
<path d="M146.39 143.133L156.524 158.152L157.609 166.476H165.209V158.876L177.333 143.133L169.914 160.142L168.105 174.8H155.619L153.809 160.142L146.39 143.133Z" fill="#DF7530"/>
<path d="M131.733 111.467L121.238 135.172L141.686 173.353L102.962 158.876L99.3428 146.029L107.305 138.972L99.3428 141.686L108.028 127.21L102.057 111.467H131.733Z" fill="#DF7530"/>
<path d="M107.305 138.972L99.3428 141.686L108.028 127.21L102.057 111.467L78.3523 124.314L102.057 120.153L101.876 128.114L90.1142 147.476L81.4285 171.181H68.3999L60.438 188.372L78.3523 179.143L99.3428 146.029L107.305 138.972Z" fill="#DAD8FF"/>
<path d="M79.9809 144.943L56.819 146.029L25.3333 180.59L47.2285 165.21L56.2761 154.352H70.7523L79.9809 144.943Z" fill="#DAD8FF"/>
<path d="M124.857 194.705L104.229 187.467L97.3525 191.086L104.229 229.086H128.476L142.591 219.314L138.248 209.905L121.781 209.362L120.695 206.648L134.81 195.972L110.743 197.419L124.857 194.705Z" fill="#E4FFAD"/>
<path d="M142.591 219.314H144.219L129.2 232.343L122.324 233.067L108.029 264.553L91.2001 256.41L96.8096 230.534V218.772L89.7524 193.257L92.1048 179.143H102.781L135.533 192.714L124.857 194.705L104.229 187.467L97.3525 191.086L104.229 229.086H128.476L142.591 219.314Z" fill="#DF7530"/>
<path d="M141.686 173.352L150.914 164.486L150.191 160.686L139.695 171.724L141.686 173.352Z" fill="#DF7530"/>
<path d="M230.533 29.3145L212.981 96.6288H207.19L226.914 32.7525L230.533 29.3145Z" fill="#FAF4C7"/>
<path d="M167.019 41.0762L173.895 70.7523H170.457L165.391 41.0762H167.019Z" fill="#FAF4C7"/>
<path d="M156.886 3.8L176.248 44.3333L183.667 49.4L158.876 0L156.886 3.8Z" fill="#FAF4C7"/>
<path d="M123.59 328.79L116.895 335.305L111.648 361L114.543 337.838L101.876 379.457L107.305 345.257L97.3523 380.362L110.381 409.857L95.3618 383.076L99.5237 358.647L87.7618 379.095L83.4189 410.4V367.333L122.143 317.028L124.495 328.247L123.59 328.79Z" fill="white"/>
<path d="M129.381 329.514L144.219 319.743L158.514 367.514L146.391 419.99L165.391 372.762L158.514 335.848L169.553 334.4L170.276 359.19L173.895 334.4L189.095 333.857L182.219 399.181L194.524 351.771V312.867L180.048 292.057H171.181L171.724 314.133L156.705 292.057H143.676L129.381 312.867V329.514Z" fill="white"/>
<path d="M134.628 326.076L131.371 373.485L139.695 398.457L126.305 375.838L123.59 328.79L124.495 328.247L129.381 351.771V329.514L134.628 326.076Z" fill="white"/>
<path d="M199.229 328.971L235.057 371.857L240.486 410.4V367.333L201.581 317.028L199.229 328.971Z" fill="white"/>
<path d="M119.972 383.438V393.933L138.248 410.4L119.248 471.924L133.724 411.848L118.705 397.191L119.791 364.257L119.972 383.438Z" fill="white"/>
<path d="M138.248 323.724V364.257L144.219 319.743L138.248 323.724Z" fill="white"/>
<path d="M189.095 333.857L191.448 315.762L178.962 298.391L187.467 316.124L175.524 303.457L172.991 317.029L173.895 334.4L189.095 333.857Z" fill="#DAD8FF"/>
<path d="M205.924 336.933L182.219 399.181L194.524 351.771L201.581 317.028L205.924 336.933Z" fill="white"/>
<path d="M203.933 364.257L222.21 376.743L218.952 402.438L217.867 394.657L214.791 406.781L202.486 418.181L204.657 422.886L203.933 436.638L199.771 416.372L215.333 399.543L216.057 380.362L203.933 364.257Z" fill="white"/>
<path d="M203.934 364.257L205.924 355.934L210.991 365.705L212.619 360.819L226.915 371.315L224.019 380.362L219.857 385.791L216.962 375.295L203.934 364.257Z" fill="white"/>
<path d="M174.8 416.914L176.791 433.743L182.219 419.99L199.229 452.2L204.657 471.924L183.124 423.609L174.8 451.657V416.914Z" fill="white"/>
<path d="M140.781 423.609L147.476 436.638V425.419L157.067 425.6L153.81 471.924L172.448 513L152.181 480.609L140.781 423.609Z" fill="white"/>
<path d="M139.695 257.676L122.505 266.181L119.971 274.867L114.362 270.524L112.552 272.876L106.038 282.286L104.229 303.819L114 273.962L119.609 289.343L124.314 271.067L139.695 261.838L124.314 280.476L148.924 261.838L155.981 267.448H167.924L174.8 261.838L199.59 280.476L184.209 261.838L199.59 271.067L204.295 289.343L209.905 273.962L219.676 303.819L215.695 272.333L192.714 250.619L199.229 260.933L189.095 252.791L182.219 255.686L189.095 256.41H169.733L164.486 260.21H159.419L150.914 254.238L139.695 257.676Z" fill="white"/>
<path d="M53.0191 212.619L33.6572 229.085L20.8096 249.352L34.562 235.781L29.6762 243.562L37.0953 240.123L43.6096 249.352L48.6763 236.685L65.5048 219.857L42.7048 238.495V229.99L55.1905 219.314L53.0191 212.619Z" fill="white"/>
<path d="M140.419 246.819H133.724L123.59 259.305L126.848 252.067L119.971 258.581L121.781 262.562L116.895 260.571L108.029 264.552L131.733 242.657H140.057L140.419 246.819Z" fill="white"/>
<path d="M60.6192 169.914L37.0954 186.562L11.4001 229.086L35.1049 198.143L58.0859 179.143L60.6192 169.914Z" fill="white"/>
<path d="M49.3999 177.695L44.3333 185.295L52.6571 179.143H58.0857L60.619 169.914L49.3999 177.695Z" fill="#DAD8FF"/>
<path d="M94.2761 241.933L77.9904 262.2L83.419 300.381L76.7237 283.733H68.038L62.6095 292.057H55.7333L42.1619 285.724L57.1809 289.705L62.6095 282.467L60.7999 271.971L50.1238 265.095L56.819 246.638L58.0857 234.695L61.7047 257.133L75.819 281.381L67.8571 258.038L68.219 231.981L91.5618 204.476L75.2761 235.238L75.819 257.133L96.8094 230.533L94.2761 241.933Z" fill="white"/>
<path d="M94.4571 326.619L91.019 286.629V314.857L85.9523 284.819L84.1428 322.096L67.3142 339.648L72.5618 380.362V356.477L94.4571 326.619Z" fill="white"/>
<path d="M69.6668 291.152L79.9811 307.619L67.3144 332.229L65.5049 322.457L72.9239 307.981L69.6668 291.152Z" fill="white"/>
<path d="M262.381 169.552L290.791 188.371L311.419 228.724L287.895 197.962L264.733 178.962L262.381 169.552Z" fill="#DAD8FF"/>
<path d="M245.733 147.476H267.809L299.114 176.609L323 173.352L297.486 180.228L275.59 164.847L266.543 153.99H252.247L245.733 147.476Z" fill="#DAD8FF"/>
<path d="M213.343 111.467L205.562 120.153L209.362 133L224.381 146.753L245.372 179.143L263.467 188.372L255.324 171.181H242.476L233.61 147.476L216.781 133.724L213.524 128.114L213.343 120.153L237.048 124.314L213.343 111.467Z" fill="white"/>
<path d="M205.562 120.153H185.114V111.467H213.343L205.562 120.153Z" fill="white"/>
<path d="M275.59 213.705L274.505 219.314L290.79 230.171L311.419 260.029L290.971 239.581L279.571 251.886L277.943 240.305L269.981 233.971L268.714 262.381L248.086 281.381L262.019 257.133L265.819 234.695L258.4 219.857L281.2 238.495V229.99L268.533 219.314L274.686 200.133L275.59 213.705Z" fill="white"/>
<path d="M262.019 278.485L239.581 305.99L243.019 313.047L256.41 332.228L258.4 322.457L250.981 307.981L254.238 291.152L266.724 299.114L281.743 285.723L266.724 289.704L260.753 285.723L262.019 278.485Z" fill="white"/>
<path d="M248.086 257.133L237.591 253.514L248.086 281.381L232.524 260.752L219.857 282.286L215.695 264.552L226.552 251.343L221.848 241.933L233.791 251.162L227.095 230.533L248.086 257.133Z" fill="white"/>
<path d="M215.695 264.552V272.333L219.676 303.819L219.857 282.286L215.695 264.552Z" fill="white"/>
<path d="M229.448 308.343L254.781 352.676L251.343 380.362V356.476L229.448 326.619V308.343Z" fill="white"/>
<path d="M157.067 425.6L150.552 455.457L147.476 425.419L157.067 425.6Z" fill="#DAD8FF"/>
</svg>
