<svg width="330" height="396" viewBox="0 0 330 396" fill="none" xmlns="http://www.w3.org/2000/svg">
<g clip-path="url(#clip0)">
<path opacity="0.64" d="M164.798 396.07C255.775 396.07 329.526 381.227 329.526 362.918C329.526 344.609 255.775 329.766 164.798 329.766C73.8216 329.766 0.0703125 344.609 0.0703125 362.918C0.0703125 381.227 73.8216 396.07 164.798 396.07Z" fill="#68CCE9"/>
<path d="M85.8326 357.592C88.1448 350.092 95.2216 346.097 106.713 342.733C114 340.63 123.248 339.649 137.752 336.705C144.829 335.304 149.804 332.5 149.804 332.5V340.56C149.804 340.56 101.808 350.022 94.3107 362.428C90.6672 368.525 91.7883 383.454 108.955 384.996C103.7 385.767 95.0815 384.436 90.457 379.74C84.7115 373.922 83.17 366.142 85.8326 357.592Z" fill="#282323" stroke="black" stroke-width="2" stroke-miterlimit="10" stroke-linecap="round" stroke-linejoin="round"/>
<path d="M149.804 340.56C149.804 340.56 121.076 345.887 105.732 352.475C92.2787 358.292 92.6991 364.32 92.3488 370.488C92.1386 374.062 94.661 382.894 104.891 384.435C117.083 386.258 131.446 384.295 149.804 372.59C149.804 343.924 149.804 340.56 149.804 340.56Z" fill="#442C2A"/>
<path opacity="0.37" d="M92.3488 370.488C92.629 365.512 92.4188 360.605 99.4256 355.839C99.1453 357.592 99.0752 359.274 99.0052 361.026C98.795 364.6 107.413 359.975 117.643 361.446C128.293 363.058 134.599 375.254 149.804 367.054C149.804 368.806 149.804 370.628 149.804 372.52C131.446 384.225 117.083 386.118 104.891 384.365C94.661 382.894 92.1386 373.992 92.3488 370.488Z" fill="#442C2A"/>
<path d="M149.804 340.56C149.804 340.56 121.076 345.887 105.732 352.475C92.2787 358.292 92.6991 364.32 92.3488 370.488C92.1386 374.062 94.661 382.894 104.891 384.435C117.083 386.258 131.446 384.295 149.804 372.59C149.804 343.924 149.804 340.56 149.804 340.56Z" stroke="black" stroke-width="2" stroke-miterlimit="10" stroke-linecap="round" stroke-linejoin="round"/>
<path d="M123.179 357.031C120.866 358.293 121.427 370.558 127.032 372.24" stroke="black" stroke-width="4" stroke-miterlimit="10" stroke-linecap="round" stroke-linejoin="round"/>
<path d="M131.937 356.12C129.555 359.484 131.236 367.404 135.51 369.366" stroke="black" stroke-width="4" stroke-miterlimit="10" stroke-linecap="round" stroke-linejoin="round"/>
<path d="M139.994 353.316C137.612 356.68 139.294 364.6 143.568 366.563" stroke="black" stroke-width="4" stroke-miterlimit="10" stroke-linecap="round" stroke-linejoin="round"/>
<path d="M222.674 317.01C207.539 327.524 186.029 333.551 163.537 333.551C141.116 333.551 119.535 327.524 104.4 317.01C97.4637 312.174 85.8325 302.081 85.8325 288.624C85.8325 275.167 97.4637 265.075 104.4 260.239C119.535 249.725 141.046 243.698 163.537 243.698C185.959 243.698 207.539 249.725 222.674 260.239C229.611 265.075 241.242 275.167 241.242 288.624C241.242 302.081 229.611 312.174 222.674 317.01Z" fill="#151E28"/>
<path d="M291.97 299.839C291.69 301.24 291.41 302.572 290.989 303.974C280.059 343.854 227.368 374.132 163.957 374.132C100.406 374.132 47.5757 343.714 36.8554 303.693C36.5751 302.572 36.2949 301.451 36.0847 300.329C35.8044 298.227 35.8745 296.124 36.2949 294.021C38.8873 282.246 53.1811 275.448 68.2455 278.812C78.125 280.985 85.8324 287.083 89.2657 294.302C89.616 295.844 90.1766 297.386 90.8072 298.857C94.4507 307.268 101.738 313.576 106.642 317.08C121.286 327.594 142.237 333.621 163.957 333.621C185.748 333.621 206.628 327.594 221.272 317.08C226.247 313.506 233.604 307.128 237.178 298.717C237.738 297.386 238.229 295.914 238.579 294.512C241.942 287.223 249.72 281.125 259.669 278.882C274.734 275.518 289.027 282.387 291.62 294.091C292.11 295.914 292.18 297.876 291.97 299.839Z" fill="#2A3749"/>
<path opacity="0.67" d="M291.62 293.951C291.55 293.601 291.48 293.32 291.34 292.97C291.129 294.091 290.849 295.283 290.499 296.404C279.708 336.285 226.948 366.563 163.607 366.563C100.056 366.563 47.2254 336.144 36.5051 296.124C36.3649 295.703 36.2949 295.283 36.1547 294.792C35.8745 296.615 35.8044 298.437 36.0847 300.189C36.2949 301.31 36.5751 302.432 36.8554 303.553C47.5757 343.574 100.406 373.992 163.957 373.992C227.368 373.992 280.059 343.714 290.989 303.834C291.34 302.502 291.69 301.1 291.97 299.698C292.181 297.876 292.11 295.914 291.62 293.951Z" fill="#151E28"/>
<path d="M291.97 299.839C291.69 301.24 291.41 302.572 290.989 303.974C280.059 343.854 227.368 374.132 163.957 374.132C100.406 374.132 47.5757 343.714 36.8554 303.693C36.5751 302.572 36.2949 301.451 36.0847 300.329C35.8044 298.227 35.8745 296.124 36.2949 294.021C38.8873 282.246 53.1811 275.448 68.2455 278.812C78.125 280.985 85.8324 287.083 89.2657 294.302C89.616 295.844 90.1766 297.386 90.8072 298.857C94.4507 307.268 101.738 313.576 106.642 317.08C121.286 327.594 142.237 333.621 163.957 333.621C185.748 333.621 206.628 327.594 221.272 317.08C226.247 313.506 233.604 307.128 237.178 298.717C237.738 297.386 238.229 295.914 238.579 294.512C241.942 287.223 249.72 281.125 259.669 278.882C274.734 275.518 289.027 282.387 291.62 294.091C292.11 295.914 292.18 297.876 291.97 299.839Z" stroke="black" stroke-width="2" stroke-miterlimit="10" stroke-linecap="round" stroke-linejoin="round"/>
<path d="M164.799 312.174C199.665 312.174 227.929 302.572 227.929 290.727C227.929 278.882 199.665 269.28 164.799 269.28C129.933 269.28 101.668 278.882 101.668 290.727C101.668 302.572 129.933 312.174 164.799 312.174Z" fill="#9B2121"/>
<path d="M164.799 312.174C199.665 312.174 227.929 302.572 227.929 290.727C227.929 278.882 199.665 269.28 164.799 269.28C129.933 269.28 101.668 278.882 101.668 290.727C101.668 302.572 129.933 312.174 164.799 312.174Z" stroke="black" stroke-width="2" stroke-miterlimit="10" stroke-linecap="round" stroke-linejoin="round"/>
<path d="M236.688 243.908H91.228C80.0873 243.908 71.469 234.165 72.8704 223.092L79.3166 171.576C81.1383 156.858 93.6103 145.854 108.465 145.854H219.591C234.375 145.854 246.847 156.858 248.739 171.576L255.185 223.092C256.447 234.165 247.828 243.908 236.688 243.908Z" fill="#F1534D"/>
<path d="M236.688 243.908H91.228C80.0873 243.908 71.469 234.165 72.8704 223.092L79.3166 171.576C81.1383 156.858 93.6103 145.854 108.465 145.854H219.591C234.375 145.854 246.847 156.858 248.739 171.576L255.185 223.092C256.447 234.165 247.828 243.908 236.688 243.908Z" stroke="black" stroke-width="4" stroke-miterlimit="10" stroke-linecap="round" stroke-linejoin="round"/>
<path d="M106.993 189.379L105.592 206.971" stroke="black" stroke-width="4" stroke-miterlimit="10" stroke-linecap="round" stroke-linejoin="round"/>
<path d="M221.974 189.379L223.375 206.971" stroke="black" stroke-width="4" stroke-miterlimit="10" stroke-linecap="round" stroke-linejoin="round"/>
<path d="M236.688 243.908H91.228C80.0873 243.908 71.469 234.165 72.8704 223.092L79.3166 171.576C81.1383 156.858 93.6103 145.854 108.465 145.854H219.591C234.375 145.854 246.847 156.858 248.739 171.576L255.185 223.092C256.447 234.165 247.828 243.908 236.688 243.908Z" fill="#F1534D"/>
<g opacity="0.24">
<path opacity="0.24" d="M79.2464 177.043C81.0682 162.325 93.5401 151.321 108.394 151.321H219.521C234.305 151.321 246.777 162.325 248.669 177.043L255.045 228.138C255.255 226.526 255.325 224.844 255.115 223.092L248.669 171.576C246.847 156.858 234.375 145.854 219.521 145.854H108.394C93.6102 145.854 81.1382 156.858 79.2464 171.576L72.8002 223.092C72.59 224.774 72.59 226.456 72.8703 228.138L79.2464 177.043Z" fill="#9B2121"/>
<path opacity="0.24" d="M114.841 151.321C114.841 151.321 123.459 152.863 124.16 157.629C124.72 161.484 124.65 164.007 126.121 165.549C127.593 167.091 131.026 170.245 137.963 170.245C134.109 166.39 134.039 152.863 132.988 152.863C132.007 152.863 129.485 146.134 129.485 146.134L126.121 144.593C126.191 144.593 113.79 146.134 114.841 151.321Z" fill="#9B2121"/>
<path opacity="0.24" d="M206.909 151.321C206.909 151.321 198.291 152.863 197.59 157.629C197.029 161.484 197.099 164.007 195.628 165.549C194.157 167.021 190.723 170.245 183.787 170.245C187.64 166.39 187.71 152.863 188.761 152.863C189.742 152.863 192.265 146.134 192.265 146.134L195.628 144.593C195.558 144.593 207.96 146.134 206.909 151.321Z" fill="#9B2121"/>
</g>
<path d="M236.688 243.908H91.228C80.0873 243.908 71.469 234.165 72.8704 223.092L79.3166 171.576C81.1383 156.858 93.6103 145.854 108.465 145.854H219.591C234.375 145.854 246.847 156.858 248.739 171.576L255.185 223.092C256.447 234.165 247.828 243.908 236.688 243.908Z" stroke="black" stroke-width="2" stroke-miterlimit="10" stroke-linecap="round" stroke-linejoin="round"/>
<path d="M106.993 189.379L105.592 206.971" stroke="black" stroke-width="4" stroke-miterlimit="10" stroke-linecap="round" stroke-linejoin="round"/>
<path d="M221.974 189.379L223.375 206.971" stroke="black" stroke-width="4" stroke-miterlimit="10" stroke-linecap="round" stroke-linejoin="round"/>
<path d="M145.25 116.557L122.198 115.366L111.407 116.557C111.407 116.557 104.19 121.954 104.19 123.426C104.19 124.898 104.891 136.883 104.891 136.883C104.891 136.883 121.917 139.196 123.739 140.948C125.561 142.7 136.351 152.793 136.351 152.793L146.791 148.728L152.257 134.149L145.25 116.557Z" fill="#9B2121"/>
<path d="M141.186 107.656H114.56C103.84 107.656 95.0815 116.347 95.0815 127.141C95.0815 137.864 103.77 146.625 114.56 146.625H118.064C123.739 146.625 128.293 151.181 128.293 156.858V157.909C128.293 164.708 133.829 170.245 140.625 170.245V157.629C140.765 157.629 140.906 157.769 140.906 157.909V156.858C140.906 144.242 130.676 134.009 118.064 134.009H114.56C110.777 134.009 107.694 130.925 107.694 127.141C107.694 123.356 110.777 120.272 114.56 120.272H141.186V107.656Z" fill="#F1534D"/>
<path d="M139.575 148.938C136.351 140.247 127.943 133.939 118.134 133.939H114.631C110.847 133.939 107.764 130.855 107.764 127.071C107.764 123.286 110.847 120.202 114.631 120.202H141.256V107.586H114.631C103.91 107.586 95.1519 116.277 95.1519 127.071C95.1519 137.794 103.84 146.555 114.631 146.555H118.134C123.809 146.555 128.364 151.111 128.364 156.788V157.839C128.364 164.638 133.899 170.175 140.696 170.175" stroke="black" stroke-width="2" stroke-miterlimit="10" stroke-linecap="round" stroke-linejoin="round"/>
<path d="M175.729 116.557L198.781 115.366L209.571 116.557C209.571 116.557 216.788 121.954 216.788 123.426C216.788 124.898 216.088 136.883 216.088 136.883C216.088 136.883 199.061 139.196 197.24 140.948C195.418 142.77 184.627 152.793 184.627 152.793L174.187 148.728L168.722 134.149L175.729 116.557Z" fill="#9B2121"/>
<path d="M179.793 107.656H206.419C217.139 107.656 225.897 116.347 225.897 127.141C225.897 137.864 217.209 146.625 206.419 146.625H202.915C197.24 146.625 192.685 151.181 192.685 156.858V157.909C192.685 164.708 187.15 170.245 180.354 170.245V157.629C180.213 157.629 180.073 157.769 180.073 157.909V156.858C180.073 144.242 190.303 134.009 202.915 134.009H206.419C210.202 134.009 213.285 130.925 213.285 127.141C213.285 123.356 210.202 120.272 206.419 120.272H179.793V107.656Z" fill="#F1534D"/>
<path d="M181.475 148.938C184.698 140.247 193.106 133.939 202.915 133.939H206.419C210.202 133.939 213.285 130.855 213.285 127.071C213.285 123.286 210.202 120.202 206.419 120.202H179.793V107.586H206.419C217.139 107.586 225.897 116.277 225.897 127.071C225.897 137.794 217.209 146.555 206.419 146.555H202.915C197.24 146.555 192.685 151.111 192.685 156.788V157.839C192.685 164.638 187.15 170.175 180.354 170.175" stroke="black" stroke-width="2" stroke-miterlimit="10" stroke-linecap="round" stroke-linejoin="round"/>
<path d="M161.786 160.292C176.878 160.292 189.112 148.054 189.112 132.958C189.112 117.861 176.878 105.623 161.786 105.623C146.694 105.623 134.459 117.861 134.459 132.958C134.459 148.054 146.694 160.292 161.786 160.292Z" fill="#F46262"/>
<path d="M135.65 124.898C143.218 129.734 152.186 132.607 161.785 132.607C171.385 132.607 180.353 129.804 187.921 124.898C184.487 113.683 174.117 105.553 161.785 105.553C149.524 105.623 139.084 113.754 135.65 124.898Z" fill="#F1534D"/>
<path d="M161.786 160.292C176.878 160.292 189.112 148.054 189.112 132.958C189.112 117.861 176.878 105.623 161.786 105.623C146.694 105.623 134.459 117.861 134.459 132.958C134.459 148.054 146.694 160.292 161.786 160.292Z" stroke="black" stroke-width="2" stroke-miterlimit="10" stroke-linecap="round" stroke-linejoin="round"/>
<path d="M161.785 148.798C152.887 148.798 145.67 141.579 145.67 132.677V120.622C145.67 118.379 147.492 116.557 149.734 116.557H173.907C176.149 116.557 177.971 118.379 177.971 120.622V132.677C177.901 141.579 170.684 148.798 161.785 148.798Z" fill="#FFC897"/>
<path d="M173.907 116.557H149.734C147.492 116.557 145.67 118.52 145.67 120.903V130.785C150.715 132.677 156.11 133.729 161.785 133.729C167.461 133.729 172.856 132.677 177.901 130.785V120.903C177.901 118.52 176.079 116.557 173.907 116.557Z" fill="#E5A973"/>
<path d="M161.785 148.798C152.887 148.798 145.67 141.579 145.67 132.677V120.622C145.67 118.379 147.492 116.557 149.734 116.557H173.907C176.149 116.557 177.971 118.379 177.971 120.622V132.677C177.901 141.579 170.684 148.798 161.785 148.798Z" stroke="black" stroke-width="2" stroke-miterlimit="10" stroke-linecap="round" stroke-linejoin="round"/>
<path d="M179.232 330.397H164.238V378.268H179.232V330.397Z" fill="#607691"/>
<path d="M179.232 330.397H164.238V378.268H179.232V330.397Z" stroke="black" stroke-width="2" stroke-miterlimit="10" stroke-linecap="round" stroke-linejoin="round"/>
<path d="M90.7373 298.717C90.1067 297.245 89.6162 295.773 89.1958 294.161C89.9665 295.703 90.457 297.175 90.7373 298.717Z" stroke="black" stroke-width="4" stroke-miterlimit="10" stroke-linecap="round" stroke-linejoin="round"/>
<path d="M237.248 298.577C237.528 297.105 238.019 295.703 238.649 294.372C238.299 295.843 237.809 297.245 237.248 298.577Z" stroke="black" stroke-width="4" stroke-miterlimit="10" stroke-linecap="round" stroke-linejoin="round"/>
<path d="M237.038 295.213H90.9475C85.7626 295.213 81.3483 291.358 80.6477 286.171L71.5389 214.821C70.7682 208.653 75.6028 203.116 81.8388 203.116H246.146C252.382 203.116 257.217 208.583 256.446 214.821L247.338 286.171C246.637 291.288 242.223 295.213 237.038 295.213Z" fill="#B5B5B5"/>
<path opacity="0.21" d="M247.267 281.686C246.637 286.872 242.223 290.727 236.967 290.727H90.9473C85.7624 290.727 81.3481 286.872 80.6475 281.686L71.6789 211.387C71.4687 212.508 71.3986 213.63 71.5387 214.821L80.6475 286.171C81.2781 291.358 85.6923 295.213 90.9473 295.213H237.038C242.223 295.213 246.637 291.358 247.337 286.171L256.446 214.821C256.586 213.63 256.516 212.508 256.306 211.387L247.267 281.686Z" fill="#7E7E7E"/>
<path opacity="0.21" d="M71.609 215.452C72.4498 210.686 76.6538 206.901 81.7687 206.901H246.076C251.261 206.901 255.395 210.616 256.236 215.452L256.306 214.751C257.077 208.583 252.242 203.046 246.006 203.046H81.8388C75.6028 203.046 70.7682 208.513 71.5389 214.751L71.609 215.452Z" fill="#7E7E7E"/>
<path d="M237.038 295.213H90.9475C85.7626 295.213 81.3483 291.358 80.6477 286.171L71.5389 214.821C70.7682 208.653 75.6028 203.116 81.8388 203.116H246.146C252.382 203.116 257.217 208.583 256.446 214.821L247.338 286.171C246.637 291.288 242.223 295.213 237.038 295.213Z" stroke="black" stroke-width="2" stroke-miterlimit="10" stroke-linecap="round" stroke-linejoin="round"/>
<path opacity="0.66" d="M170.894 244.819C167.741 244.819 165.219 242.296 165.219 239.142C165.219 238.932 165.219 238.722 165.289 238.511C164.728 238.441 164.168 238.371 163.607 238.371C158.492 238.371 154.288 242.576 154.288 247.693C154.288 252.809 158.492 257.015 163.607 257.015C168.722 257.015 172.926 252.809 172.926 247.693C172.926 246.642 172.716 245.59 172.435 244.609C171.945 244.679 171.455 244.819 170.894 244.819Z" fill="#B5B5B5"/>
<path d="M243.203 357.592C240.891 350.092 233.814 346.097 222.323 342.733C215.036 340.63 205.787 339.649 191.284 336.705C184.207 335.304 179.232 332.5 179.232 332.5V340.56C179.232 340.56 227.228 350.022 234.725 362.428C238.369 368.525 237.248 383.454 220.081 384.996C225.336 385.767 233.954 384.436 238.579 379.74C244.324 373.922 245.866 366.142 243.203 357.592Z" fill="#282323" stroke="black" stroke-width="2" stroke-miterlimit="10" stroke-linecap="round" stroke-linejoin="round"/>
<path d="M179.232 340.56C179.232 340.56 207.96 345.887 223.304 352.475C236.757 358.292 236.337 364.32 236.687 370.488C236.897 374.062 234.375 382.894 224.145 384.435C211.953 386.258 197.59 384.295 179.232 372.59C179.232 343.924 179.232 340.56 179.232 340.56Z" fill="#442C2A"/>
<path opacity="0.37" d="M236.687 370.488C236.407 365.512 236.617 360.605 229.61 355.839C229.891 357.592 229.961 359.274 230.031 361.026C230.241 364.6 227.719 373.432 217.489 374.974C206.838 376.586 194.437 375.254 179.232 367.054C179.232 368.806 179.232 370.628 179.232 372.52C197.59 384.225 211.953 386.118 224.145 384.365C234.445 382.894 236.897 373.992 236.687 370.488Z" fill="#442C2A"/>
<path d="M179.232 340.56C179.232 340.56 207.96 345.887 223.304 352.475C236.757 358.292 236.337 364.32 236.687 370.488C236.897 374.062 234.375 382.894 224.145 384.435C211.953 386.258 197.59 384.295 179.232 372.59C179.232 343.924 179.232 340.56 179.232 340.56Z" stroke="black" stroke-width="2" stroke-miterlimit="10" stroke-linecap="round" stroke-linejoin="round"/>
<path d="M205.858 357.031C208.17 358.293 207.609 370.558 202.004 372.24" stroke="black" stroke-width="2" stroke-miterlimit="10" stroke-linecap="round" stroke-linejoin="round"/>
<path d="M197.099 356.12C199.481 359.484 197.799 367.404 193.525 369.366" stroke="black" stroke-width="2" stroke-miterlimit="10" stroke-linecap="round" stroke-linejoin="round"/>
<path d="M189.041 353.316C191.423 356.68 189.742 364.6 185.468 366.563" stroke="black" stroke-width="2" stroke-miterlimit="10" stroke-linecap="round" stroke-linejoin="round"/>
<path d="M137.192 163.096V200.383" stroke="black" stroke-width="4" stroke-miterlimit="10" stroke-linecap="round" stroke-linejoin="round"/>
<path d="M184.487 163.096V189.379" stroke="black" stroke-width="4" stroke-miterlimit="10" stroke-linecap="round" stroke-linejoin="round"/>
<path d="M184.487 197.299C187.699 197.299 190.303 194.695 190.303 191.482C190.303 188.269 187.699 185.665 184.487 185.665C181.275 185.665 178.671 188.269 178.671 191.482C178.671 194.695 181.275 197.299 184.487 197.299Z" fill="black"/>
<path d="M184.487 193.164C185.803 193.164 186.87 192.097 186.87 190.781C186.87 189.465 185.803 188.398 184.487 188.398C183.172 188.398 182.105 189.465 182.105 190.781C182.105 192.097 183.172 193.164 184.487 193.164Z" fill="#7E7E7E"/>
<path d="M161.786 128.402C137.402 128.402 117.573 108.637 117.573 84.1764V32.8716H205.998V84.1764C205.998 108.567 186.239 128.402 161.786 128.402Z" fill="#FFC897"/>
<path d="M161.786 122.304C137.402 122.304 117.573 102.54 117.573 78.0786V84.1763C117.573 108.567 137.332 128.402 161.786 128.402C186.169 128.402 205.998 108.637 205.998 84.1763V78.0786C205.998 102.469 186.239 122.304 161.786 122.304Z" fill="#E5A973"/>
<path d="M161.786 128.402C137.402 128.402 117.573 108.637 117.573 84.1764V32.8716H205.998V84.1764C205.998 108.567 186.239 128.402 161.786 128.402Z" stroke="black" stroke-width="2" stroke-miterlimit="10" stroke-linecap="round" stroke-linejoin="round"/>
<path d="M206.348 37.9881C206.208 35.6051 206.068 33.152 205.998 30.769C176.57 32.1707 147.001 31.9605 117.643 29.3672C117.433 32.1006 117.293 34.8341 117.083 37.5676C118.414 38.7591 119.815 40.0206 121.146 41.2121C122.267 41.7728 123.739 42.5438 125.07 43.2447C130.956 46.3286 139.154 50.2536 147.001 51.7955C149.874 52.3562 152.887 52.6366 155.97 52.5665C169.213 52.4263 180.353 47.1697 185.048 44.9969C185.748 44.6465 186.309 44.3661 186.659 44.2961C186.94 44.1559 187.22 44.0858 187.64 44.0858C188.481 44.0858 189.462 44.296 190.653 44.5063C192.195 44.8568 194.016 45.2072 196.048 45.067C198.361 44.9268 200.463 44.226 202.494 42.8943C203.686 41.2122 205.017 39.6001 206.348 37.9881Z" fill="#E5A973"/>
<path d="M185.048 11.3544C185.048 11.3544 149.664 -11.9851 120.376 14.0878C114.911 18.9239 112.739 25.8627 112.739 32.2407V66.0234H117.643V41.4924C117.643 39.6701 118.905 38.2683 120.446 38.2683C122.969 38.2683 136.632 45.5575 148.193 47.5901C165.64 50.6039 181.545 42.5437 184.978 41.3522C190.864 39.2496 195.628 46.5388 203.055 38.3384H203.336C204.877 38.3384 206.138 39.8103 206.138 41.5625V66.0935H211.043V32.451C210.903 24.1806 201.374 3.43435 185.048 11.3544Z" fill="#231A17"/>
<g opacity="0.34">
<path opacity="0.34" d="M117.574 61.3975H112.669V66.0233H117.574V61.3975Z" fill="#231A17"/>
<path opacity="0.34" d="M210.903 61.3975H205.998V66.0233H210.903V61.3975Z" fill="#231A17"/>
</g>
<path d="M185.048 11.3544C185.048 11.3544 149.664 -11.9851 120.376 14.0878C114.911 18.9239 112.739 25.8627 112.739 32.2407V66.0234H117.643V41.4924C117.643 39.6701 118.905 38.2683 120.446 38.2683C122.969 38.2683 136.632 45.5575 148.193 47.5901C165.64 50.6039 181.545 42.5437 184.978 41.3522C190.864 39.2496 195.628 46.5388 203.055 38.3384H203.336C204.877 38.3384 206.138 39.8103 206.138 41.5625V66.0935H211.043V32.451C210.903 24.1806 201.374 3.43435 185.048 11.3544Z" stroke="black" stroke-width="2" stroke-miterlimit="10" stroke-linecap="round" stroke-linejoin="round"/>
<path d="M155.129 34.133C155.129 34.133 117.153 36.5861 109.095 16.4006" stroke="black" stroke-width="2" stroke-miterlimit="10" stroke-linecap="round" stroke-linejoin="round"/>
<path d="M160.525 29.297C160.525 29.297 123.95 26.9841 114.42 6.79858" stroke="black" stroke-width="2" stroke-miterlimit="10" stroke-linecap="round" stroke-linejoin="round"/>
<path d="M205.998 60.5564V83.5454C210.903 83.5454 214.827 78.4289 214.827 72.0509C214.827 65.6728 210.903 60.5564 205.998 60.5564Z" fill="#FFC897"/>
<path d="M205.998 61.8181V82.2138C208.871 80.3215 210.833 76.4666 210.833 71.9809C210.833 67.5654 208.871 63.7105 205.998 61.8181Z" fill="#E5A973"/>
<path d="M205.998 60.5564V83.5454C210.903 83.5454 214.827 78.4289 214.827 72.0509C214.827 65.6728 210.903 60.5564 205.998 60.5564Z" stroke="black" stroke-width="2" stroke-miterlimit="10" stroke-linecap="round" stroke-linejoin="round"/>
<path d="M117.643 60.5564V83.5454C112.739 83.5454 108.815 78.4289 108.815 72.0509C108.745 65.6728 112.739 60.5564 117.643 60.5564Z" fill="#FFC897"/>
<path d="M117.644 62.2385C115.121 64.2711 113.37 67.9157 113.37 72.0509C113.37 76.1861 115.051 79.8307 117.644 81.8633V62.2385Z" fill="#E5A973"/>
<path d="M117.643 60.5564V83.5454C112.739 83.5454 108.815 78.4289 108.815 72.0509C108.745 65.6728 112.739 60.5564 117.643 60.5564Z" stroke="black" stroke-width="2" stroke-miterlimit="10" stroke-linecap="round" stroke-linejoin="round"/>
<path d="M159.964 79.27L157.021 88.8721C157.021 89.9235 160.454 89.0824 163.958 89.9235" stroke="black" stroke-width="2" stroke-miterlimit="10" stroke-linecap="round" stroke-linejoin="round"/>
<path d="M176.5 97.2129C177.551 104.502 168.162 110.95 160.805 109.619" stroke="black" stroke-width="2" stroke-miterlimit="10" stroke-linecap="round" stroke-linejoin="round"/>
<path d="M145.88 71.14C147.506 71.14 148.823 69.7279 148.823 67.986C148.823 66.2441 147.506 64.832 145.88 64.832C144.255 64.832 142.938 66.2441 142.938 67.986C142.938 69.7279 144.255 71.14 145.88 71.14Z" stroke="black" stroke-width="2" stroke-miterlimit="10" stroke-linecap="round" stroke-linejoin="round"/>
<path d="M145.88 71.14C147.506 71.14 148.823 69.7279 148.823 67.986C148.823 66.2441 147.506 64.832 145.88 64.832C144.255 64.832 142.938 66.2441 142.938 67.986C142.938 69.7279 144.255 71.14 145.88 71.14Z" fill="black"/>
<path d="M135.721 61.3275C137.192 59.5753 140.625 58.3838 144.689 58.3838C147.912 58.3838 150.715 59.1548 152.467 60.3463" stroke="black" stroke-width="2" stroke-miterlimit="10" stroke-linecap="round" stroke-linejoin="round"/>
<path d="M178.112 71.14C179.737 71.14 181.055 69.7279 181.055 67.986C181.055 66.2441 179.737 64.832 178.112 64.832C176.487 64.832 175.169 66.2441 175.169 67.986C175.169 69.7279 176.487 71.14 178.112 71.14Z" stroke="black" stroke-width="2" stroke-miterlimit="10" stroke-linecap="round" stroke-linejoin="round"/>
<path d="M178.112 71.14C179.737 71.14 181.055 69.7279 181.055 67.986C181.055 66.2441 179.737 64.832 178.112 64.832C176.487 64.832 175.169 66.2441 175.169 67.986C175.169 69.7279 176.487 71.14 178.112 71.14Z" fill="black"/>
<path d="M188.271 61.3275C186.8 59.5753 183.367 58.3838 179.303 58.3838C176.08 58.3838 173.277 59.1548 171.525 60.3463" stroke="black" stroke-width="2" stroke-miterlimit="10" stroke-linecap="round" stroke-linejoin="round"/>
</g>
<defs>
<clipPath id="clip0">
<rect width="329.316" height="396" fill="white"/>
</clipPath>
</defs>
</svg>
