<svg width="132" height="133" viewBox="0 0 132 133" fill="none" xmlns="http://www.w3.org/2000/svg">
<g clip-path="url(#clip0)">
<ellipse cx="50.6755" cy="83.2096" rx="3.67548" ry="3.63672" fill="#F70808" fill-opacity="0.1"/>
<ellipse cx="85.0368" cy="70.6403" rx="3.67548" ry="3.63672" fill="#F70808" fill-opacity="0.1"/>
<ellipse cx="72.6325" cy="62.4576" rx="3.67548" ry="3.63672" fill="#6CD47B" fill-opacity="0.1"/>
<ellipse cx="89.6312" cy="49.7291" rx="2.29717" ry="2.27295" fill="#6CD47B" fill-opacity="0.1"/>
<ellipse cx="103.874" cy="60.1847" rx="2.29717" ry="2.27295" fill="#6CD47B" fill-opacity="0.1"/>
<ellipse cx="112.602" cy="55.1841" rx="2.29717" ry="2.27295" fill="#6CD47B" fill-opacity="0.1"/>
<ellipse cx="123.629" cy="53.3658" rx="2.29717" ry="2.27295" fill="#FAE315" fill-opacity="0.1"/>
<ellipse cx="69.2972" cy="49.273" rx="2.29717" ry="2.27295" fill="#FAE315" fill-opacity="0.1"/>
<ellipse cx="101.117" cy="94.7335" rx="2.29717" ry="2.27295" fill="#6CD47B" fill-opacity="0.1"/>
<ellipse cx="101.117" cy="94.7335" rx="2.29717" ry="2.27295" fill="#7E7CE0" fill-opacity="0.1"/>
<ellipse cx="95.6048" cy="102.916" rx="2.29717" ry="2.27295" fill="#6CD47B" fill-opacity="0.1"/>
<ellipse cx="86.8744" cy="102.916" rx="1.3783" ry="1.36377" fill="#6CD47B" fill-opacity="0.1"/>
<ellipse cx="114.9" cy="99.734" rx="2.75661" ry="2.72754" fill="#6CD47B" fill-opacity="0.1"/>
<ellipse cx="84.7566" cy="118.728" rx="2.75661" ry="2.72754" fill="#6CD47B" fill-opacity="0.1"/>
<ellipse cx="118.553" cy="114.504" rx="2.75661" ry="2.72754" fill="#6CD47B" fill-opacity="0.1"/>
<ellipse cx="72.1726" cy="87.4601" rx="2.75662" ry="2.7276" fill="#FAE315" fill-opacity="0.1"/>
<ellipse cx="85.0369" cy="82.005" rx="2.75661" ry="2.72754" fill="#6CD47B" fill-opacity="0.1"/>
<ellipse cx="76.7673" cy="99.734" rx="2.75661" ry="2.72754" fill="#F70808" fill-opacity="0.1"/>
<circle cx="58.5" cy="110.5" r="4.5" fill="#F70808" fill-opacity="0.1"/>
<ellipse cx="123.17" cy="83.3687" rx="2.75661" ry="2.72754" fill="#F70808" fill-opacity="0.1"/>
<ellipse cx="88.7112" cy="93.8243" rx="2.29717" ry="2.27295" fill="#6CD47B" fill-opacity="0.1"/>
<ellipse cx="92.387" cy="75.6407" rx="2.29717" ry="2.27295" fill="#6CD47B" fill-opacity="0.1"/>
<ellipse cx="94.2264" cy="88.8238" rx="1.83774" ry="1.81836" fill="#6CD47B" fill-opacity="0.1"/>
<ellipse cx="96.5233" cy="81.0958" rx="1.83774" ry="1.81836" fill="#6CD47B" fill-opacity="0.1"/>
<ellipse cx="120.563" cy="105.544" rx="1.83774" ry="1.81836" fill="#6CD47B" fill-opacity="0.1"/>
<ellipse cx="110.316" cy="118.718" rx="1.83774" ry="1.81836" fill="#6CD47B" fill-opacity="0.1"/>
<ellipse cx="124.954" cy="126.037" rx="1.83774" ry="1.81836" fill="#6CD47B" fill-opacity="0.1"/>
<ellipse cx="119.035" cy="75.6407" rx="1.83774" ry="1.81836" fill="#6CD47B" fill-opacity="0.1"/>
<ellipse cx="113.981" cy="83.3688" rx="1.83774" ry="1.81836" fill="#FAE315" fill-opacity="0.1"/>
<ellipse cx="125.008" cy="92.006" rx="1.83774" ry="1.81836" fill="#6CD47B" fill-opacity="0.1"/>
<ellipse cx="125.927" cy="99.7339" rx="1.83774" ry="1.81836" fill="#6CD47B" fill-opacity="0.1"/>
<ellipse cx="128.223" cy="78.8228" rx="1.83774" ry="1.81836" fill="#6CD47B" fill-opacity="0.1"/>
<ellipse cx="96.0633" cy="67.4581" rx="1.83774" ry="1.81836" fill="#6CD47B" fill-opacity="0.1"/>
<ellipse cx="97.4408" cy="52.4566" rx="1.3783" ry="1.36377" fill="#6CD47B" fill-opacity="0.1"/>
<ellipse cx="122.251" cy="68.3673" rx="1.3783" ry="1.36377" fill="#6CD47B" fill-opacity="0.1"/>
<ellipse cx="114.901" cy="62.4576" rx="1.37833" ry="1.36383" fill="#6CD47B" fill-opacity="0.1"/>
<ellipse cx="117.198" cy="91.5514" rx="1.3783" ry="1.36377" fill="#6CD47B" fill-opacity="0.1"/>
<ellipse cx="108.468" cy="88.8238" rx="1.3783" ry="1.36377" fill="#6CD47B" fill-opacity="0.1"/>
<ellipse rx="0.91887" ry="0.909181" transform="matrix(-1 0 0 1 102.036 87.9146)" fill="#6CD47B" fill-opacity="0.1"/>
<ellipse rx="0.91887" ry="0.909181" transform="matrix(-1 0 0 1 80.4425 91.0968)" fill="#6CD47B" fill-opacity="0.1"/>
<ellipse rx="0.91887" ry="0.909181" transform="matrix(-1 0 0 1 62.5567 84.1415)" fill="#7E7CE0" fill-opacity="0.1"/>
<ellipse rx="0.91887" ry="0.909181" transform="matrix(-1 0 0 1 103.542 114.149)" fill="#6CD47B" fill-opacity="0.1"/>
<ellipse rx="0.91887" ry="0.909181" transform="matrix(-1 0 0 1 118.912 131.714)" fill="#6CD47B" fill-opacity="0.1"/>
<ellipse rx="0.91887" ry="0.909181" transform="matrix(-1 0 0 1 105.712 100.643)" fill="#6CD47B" fill-opacity="0.1"/>
<ellipse rx="0.91887" ry="0.909181" transform="matrix(-1 0 0 1 100.919 127.909)" fill="#6CD47B" fill-opacity="0.1"/>
<ellipse rx="0.91887" ry="0.909181" transform="matrix(-1 0 0 1 113.058 109.026)" fill="#6CD47B" fill-opacity="0.1"/>
<ellipse rx="0.91887" ry="0.909181" transform="matrix(-1 0 0 1 77.6856 78.8228)" fill="#6CD47B" fill-opacity="0.1"/>
<ellipse rx="0.91887" ry="0.909181" transform="matrix(-1 0 0 1 61.919 95.9092)" fill="#6CD47B" fill-opacity="0.1"/>
<ellipse rx="0.91887" ry="0.909181" transform="matrix(-1 0 0 1 104.792 53.3658)" fill="#6CD47B" fill-opacity="0.1"/>
<ellipse rx="0.91887" ry="0.909181" transform="matrix(-1 0 0 1 127.306 43.3648)" fill="#6CD47B" fill-opacity="0.1"/>
<ellipse rx="0.91887" ry="0.909181" transform="matrix(-1 0 0 1 100.198 46.5469)" fill="#6CD47B" fill-opacity="0.1"/>
<ellipse rx="0.91887" ry="0.909181" transform="matrix(-1 0 0 1 116.278 67.9127)" fill="#6CD47B" fill-opacity="0.1"/>
<ellipse rx="0.91887" ry="0.909181" transform="matrix(-1 0 0 1 112.604 75.1861)" fill="#6CD47B" fill-opacity="0.1"/>
<ellipse rx="0.91887" ry="0.909181" transform="matrix(-1 0 0 1 128.224 62.003)" fill="#6CD47B" fill-opacity="0.1"/>
<ellipse rx="0.91887" ry="0.909181" transform="matrix(-1 0 0 1 121.333 61.5484)" fill="#7E7CE0" fill-opacity="0.1"/>
<ellipse rx="0.91887" ry="0.909181" transform="matrix(-1 0 0 1 130.98 67.458)" fill="#6CD47B" fill-opacity="0.1"/>
<ellipse rx="0.91887" ry="0.909181" transform="matrix(-1 0 0 1 130.061 101.552)" fill="#6CD47B" fill-opacity="0.1"/>
<ellipse cx="96.5233" cy="58.3663" rx="1.83774" ry="1.81836" fill="#FAE315" fill-opacity="0.1"/>
<ellipse cx="106.658" cy="109.203" rx="1.83774" ry="1.81836" fill="#6CD47B" fill-opacity="0.1"/>
<ellipse cx="80.9017" cy="60.6392" rx="1.3783" ry="1.36377" fill="#6CD47B" fill-opacity="0.1"/>
<ellipse cx="99.7377" cy="76.0953" rx="1.3783" ry="1.36377" fill="#7E7CE0" fill-opacity="0.1"/>
<ellipse cx="105.712" cy="73.3677" rx="1.3783" ry="1.36377" fill="#6CD47B" fill-opacity="0.1"/>
<ellipse cx="108.468" cy="46.5469" rx="1.3783" ry="1.36377" fill="#7E7CE0" fill-opacity="0.1"/>
<ellipse cx="117.658" cy="49.2744" rx="1.3783" ry="1.36377" fill="#6CD47B" fill-opacity="0.1"/>
<ellipse cx="126.846" cy="72.4586" rx="1.3783" ry="1.36377" fill="#6CD47B" fill-opacity="0.1"/>
<ellipse cx="105.252" cy="80.1866" rx="1.3783" ry="1.36377" fill="#6CD47B" fill-opacity="0.1"/>
<ellipse cx="88.7118" cy="60.6392" rx="1.83774" ry="1.81836" fill="#FAE315" fill-opacity="0.1"/>
<ellipse cx="71.2538" cy="75.1861" rx="1.83774" ry="1.81836" fill="#6CD47B" fill-opacity="0.1"/>
<ellipse cx="118.117" cy="42.4556" rx="1.83774" ry="1.81836" fill="#6CD47B" fill-opacity="0.1"/>
<ellipse cx="126.387" cy="36.5459" rx="1.83774" ry="1.81836" fill="#6CD47B" fill-opacity="0.1"/>
<ellipse cx="108.469" cy="67.0035" rx="1.83774" ry="1.81836" fill="#6CD47B" fill-opacity="0.1"/>
<ellipse cx="129.26" cy="110.567" rx="3.21604" ry="3.18213" fill="#F70808" fill-opacity="0.1"/>
<ellipse cx="109.846" cy="37.0005" rx="2.75661" ry="2.72754" fill="#7E7CE0" fill-opacity="0.1"/>
<ellipse cx="119.035" cy="33.3638" rx="1.3783" ry="1.36377" fill="#6CD47B" fill-opacity="0.1"/>
</g>
<defs>
<clipPath id="clip0">
<rect width="132" height="133" fill="white"/>
</clipPath>
</defs>
</svg>
