<svg width="300" height="170" viewBox="0 0 300 170" fill="none" xmlns="http://www.w3.org/2000/svg">
<path d="M-30.4795 116.543C-21.6449 100.734 -8.06911 57.652 -24.4431 11.7875" stroke="white" stroke-opacity="0.12" stroke-linecap="round" stroke-linejoin="round"/>
<path d="M0.000417866 102C4.05595 95.4935 13.5207 76.6114 18.9354 53.1352C20.2177 48.0408 27.507 37.7425 46.4061 37.3043C70.0299 36.7566 72.8389 7.43473 72.8511 -2.01837" stroke="white" stroke-opacity="0.12" stroke-linecap="round" stroke-linejoin="round"/>
<path d="M0.000322353 161C8.24071 138.191 30.4943 89.6915 53.5855 78.1654C82.4495 63.7578 116.405 17.3843 110.578 -5.30224" stroke="white" stroke-opacity="0.12" stroke-linecap="round" stroke-linejoin="round"/>
<path d="M92.573 170.684C96.8969 165.51 113.357 153.878 144.608 148.741C183.671 142.321 232.01 116.594 256.696 85.4125C281.381 54.2312 265.431 42.839 298.691 -0.713328" stroke="white" stroke-opacity="0.12" stroke-linecap="round" stroke-linejoin="round"/>
<path d="M112.374 179.108C116.698 173.934 133.158 162.301 164.409 157.165C203.472 150.745 251.811 125.018 276.497 93.8363C301.182 62.655 285.232 51.2628 318.492 7.7105" stroke="white" stroke-opacity="0.12" stroke-linecap="round" stroke-linejoin="round"/>
<path d="M132.177 187.53C136.5 182.356 152.961 170.723 184.211 165.587C223.275 159.167 271.614 133.439 296.299 102.258C320.985 71.0769 305.035 59.6847 338.295 16.1324" stroke="white" stroke-opacity="0.12" stroke-linecap="round" stroke-linejoin="round"/>
<path d="M151.978 195.956C156.302 190.782 172.763 179.149 204.013 174.013C243.077 167.593 291.416 141.865 316.101 110.684C340.786 79.5027 324.837 68.1105 358.097 24.5582" stroke="white" stroke-opacity="0.12" stroke-linecap="round" stroke-linejoin="round"/>
<path d="M175.384 -5.0792C180.66 8.223 181.587 45.8763 143.087 90.0717C94.963 145.316 226.438 92.7842 264.883 -11.1315" stroke="white" stroke-opacity="0.12" stroke-linecap="round" stroke-linejoin="round"/>
<path d="M193.85 -6.25637C197.17 2.27646 198.583 26.1003 177.676 53.133C151.541 86.9238 225.253 56.8068 244.726 -7.97855" stroke="white" stroke-opacity="0.12" stroke-linecap="round" stroke-linejoin="round"/>
<path d="M-4.95082 4.79049C-3.98041 17.7196 8.14401 40.9671 48.8784 30.5247C54.6196 28.9172 64.8526 20.3679 59.8556 -0.969158" stroke="white" stroke-opacity="0.12" stroke-linecap="round" stroke-linejoin="round"/>
<path d="M10.9076 -0.665104C10.6448 7.0101 16.5045 21.294 42.0465 17.0282C45.6554 16.3468 52.4639 11.778 50.8261 -1.04668" stroke="white" stroke-opacity="0.12" stroke-linecap="round" stroke-linejoin="round"/>
<path d="M-5.0586 177.792C8.84316 158.421 41.0695 116.965 58.761 106.11C80.8753 92.5414 149.605 49.9171 140.004 -2.13039" stroke="white" stroke-opacity="0.12" stroke-linecap="round" stroke-linejoin="round"/>
<path d="M-0.000284052 127C8.18412 117.366 24.8646 95.0526 26.111 82.8654C27.3575 70.6782 36.6802 62.9248 41.1857 60.5715C48.5235 57.3935 63.9257 49.5531 66.8318 43.6153L83.8601 18.7477C85.8615 15.3674 88.7827 6.13809 84.4563 -3.73635" stroke="white" stroke-opacity="0.12" stroke-linecap="round" stroke-linejoin="round"/>
</svg>
