<svg width="132" height="133" viewBox="0 0 132 133" fill="none" xmlns="http://www.w3.org/2000/svg">
<path d="M25.0477 133H17.4854L93.8288 61.0213L131.64 97.5532V102.255L95.6294 67.5319L25.0477 133Z" fill="#F1C753" fill-opacity="0.17"/>
<path d="M9.56233 132.638H2L89.5069 48L132 88.5106V93.5745L91.6676 54.5106L9.56233 132.638Z" fill="#F1C753" fill-opacity="0.17"/>
<path d="M97.0687 74.0425L33.3291 132.638H41.2515L99.5895 80.5532L131.639 110.936V106.596L97.0687 74.0425Z" fill="#F1C753" fill-opacity="0.17"/>
<path d="M107.152 106.957L77.983 133H68.6201L105.712 100.085L131.639 120.34V123.234L107.152 106.957Z" fill="#F1C753" fill-opacity="0.17"/>
<path d="M59.2576 132.638H50.2549L101.751 86.7021L132 115.638V118.17L103.551 92.8511L59.2576 132.638Z" fill="#F1C753" fill-opacity="0.17"/>
</svg>
