<svg width="132" height="133" viewBox="0 0 132 133" fill="none" xmlns="http://www.w3.org/2000/svg">
<g clip-path="url(#clip0)">
<path d="M116 66H99L107.5 90L116 66Z" fill="white" fill-opacity="0.08"/>
<path d="M96.5 95.5L92 98.5L96.5 102.5V95.5Z" fill="white" fill-opacity="0.08"/>
<path d="M118 106H113L116.5 115.5L118 106Z" fill="#F9FC70" fill-opacity="0.12"/>
<path d="M91.5 122.5V127H103L91.5 122.5Z" fill="#F9FC70" fill-opacity="0.12"/>
<path d="M122 125V131L128.5 129.5L122 125Z" fill="white" fill-opacity="0.08"/>
<path d="M132.5 111V114H127.5L132.5 111Z" fill="white" fill-opacity="0.08"/>
<path d="M125.5 93.5L124.5 97.5L123.5 93.5H125.5Z" fill="#7D2323" fill-opacity="0.38"/>
<path d="M122 82H119.5L120.5 84.5L122 82Z" fill="white" fill-opacity="0.08"/>
<path d="M77.5 117V122L64 119.5L77.5 117Z" fill="#7D2323" fill-opacity="0.38"/>
<path d="M83.5 108.5H79L83.5 112V108.5Z" fill="white" fill-opacity="0.08"/>
<path d="M78.5 89.5L81 97.5L74 93L78.5 89.5Z" fill="#A293FF" fill-opacity="0.17"/>
<path d="M91.5 114V116.5L95.5 115.5L91.5 114Z" fill="#7D2323" fill-opacity="0.38"/>
<path d="M51.5 104V111L67.5 108L51.5 104Z" fill="#A293FF" fill-opacity="0.17"/>
<path d="M76.5 74.5L74 81L82 82L76.5 74.5Z" fill="white" fill-opacity="0.08"/>
<path d="M94.5 83L92.5 85.5L94.5 89.5V83Z" fill="white" fill-opacity="0.08"/>
<path d="M128.5 71.5H123.5V77.5L128.5 71.5Z" fill="white" fill-opacity="0.08"/>
<path d="M129.5 89V83.5L121 88L129.5 89Z" fill="white" fill-opacity="0.08"/>
<path d="M110 99L107.5 103H112.5L110 99Z" fill="#F9FC70" fill-opacity="0.12"/>
<path d="M106 116.5V121.5L110.5 120L106 116.5Z" fill="white" fill-opacity="0.08"/>
<path d="M102.5 105L101 108.5H104L102.5 105Z" fill="white" fill-opacity="0.08"/>
<path d="M80.5 127.5V131.5L84.5 130L80.5 127.5Z" fill="white" fill-opacity="0.08"/>
<path d="M110 133.5H106L109 129.5L110 133.5Z" fill="white" fill-opacity="0.08"/>
<path d="M48.5 123.5V129.5L53 128.5L48.5 123.5Z" fill="#7D2323" fill-opacity="0.38"/>
<path d="M55 87.5V92L67.5 95L55 87.5Z" fill="white" fill-opacity="0.08"/>
<path d="M77.5 53L73.5 60L81 62.5L77.5 53Z" fill="#F9FC70" fill-opacity="0.12"/>
<path d="M91.5 59.5L89.5 62.5L94 65L91.5 59.5Z" fill="#7D2323" fill-opacity="0.38"/>
<path d="M59 65L56 69.5H63.5L59 65Z" fill="white" fill-opacity="0.08"/>
<path d="M41.5 98L40.5 100H42.5L41.5 98Z" fill="#7D2323" fill-opacity="0.38"/>
<path d="M37 111.5L36 114.5H41.5L37 111.5Z" fill="#F9FC70" fill-opacity="0.12"/>
<path d="M29 121V123.5L31 126.5L33 123.5L29 121Z" fill="white" fill-opacity="0.08"/>
<path d="M38 74.5L36.5 79.5L58 78L38 74.5Z" fill="#A293FF" fill-opacity="0.17"/>
<path d="M110.533 39L118.91 42.2909L107.292 55.4544L110.533 39Z" fill="#A293FF" fill-opacity="0.17"/>
</g>
<defs>
<clipPath id="clip0">
<rect width="132" height="133" fill="white"/>
</clipPath>
</defs>
</svg>
