<svg width="132" height="133" viewBox="0 0 132 133" fill="none" xmlns="http://www.w3.org/2000/svg">
<path d="M14.86 105.303L16.5234 111.567L22.7071 108.899L18.5976 114.042L24.6451 116.979L17.8573 117.128L19.2148 123.459L14.86 118.502L10.5052 123.459L11.8627 117.128L5.07488 116.979L11.1224 114.042L7.01295 108.899L13.1966 111.567L14.86 105.303Z" fill="white" fill-opacity="0.08"/>
<path d="M53.0954 103.393L54.7587 109.657L60.9424 106.989L56.8329 112.132L62.8805 115.069L56.0927 115.218L57.4501 121.549L53.0954 116.592L48.7406 121.549L50.098 115.218L43.3102 115.069L49.3578 112.132L45.2483 106.989L51.432 109.657L53.0954 103.393Z" fill="white" fill-opacity="0.14"/>
<path d="M87.9851 120.584L89.094 124.656L93.2165 122.922L90.4768 126.265L94.5085 128.174L89.9833 128.271L90.8883 132.385L87.9851 129.163L85.0819 132.385L85.9869 128.271L81.4617 128.174L85.4934 126.265L82.7537 122.922L86.8762 124.656L87.9851 120.584Z" fill="white" fill-opacity="0.12"/>
<path d="M71.2577 65.191L71.8122 67.0702L73.8734 66.2698L72.5036 67.8127L74.5194 68.6938L72.2568 68.7386L72.7093 70.6376L71.2577 69.1506L69.8061 70.6376L70.2586 68.7386L67.996 68.6938L70.0118 67.8127L68.642 66.2698L70.7032 67.0702L71.2577 65.191Z" fill="white" fill-opacity="0.2"/>
<path d="M123.831 109.124L124.385 111.003L126.447 110.202L125.077 111.745L127.093 112.626L124.83 112.671L125.283 114.57L123.831 113.083L122.379 114.57L122.832 112.671L120.569 112.626L122.585 111.745L121.215 110.202L123.276 111.003L123.831 109.124Z" fill="white" fill-opacity="0.04"/>
<path d="M38.7577 64.236L39.3122 66.1151L41.3734 65.3147L40.0036 66.8576L42.0194 67.7387L39.7568 67.7835L40.2093 69.6826L38.7577 68.1955L37.3061 69.6826L37.7586 67.7835L35.496 67.7387L37.5118 66.8576L36.142 65.3147L38.2032 66.1151L38.7577 64.236Z" fill="white" fill-opacity="0.04"/>
<path d="M4.34559 122.494L4.90005 124.374L6.96127 123.573L5.59145 125.116L7.6073 125.997L5.34469 126.042L5.79718 127.941L4.34559 126.454L2.89399 127.941L3.34648 126.042L1.08388 125.997L3.09973 125.116L1.7299 123.573L3.79113 124.374L4.34559 122.494Z" fill="white" fill-opacity="0.2"/>
<path d="M104.235 48L104.552 49.2528L105.73 48.7192L104.947 49.7478L106.099 50.3352L104.806 50.365L105.064 51.6311L104.235 50.6397L103.406 51.6311L103.664 50.365L102.371 50.3352L103.523 49.7478L102.74 48.7192L103.918 49.2528L104.235 48Z" fill="white" fill-opacity="0.04"/>
<path d="M29.6764 118.674L29.9932 119.927L31.1711 119.393L30.3883 120.422L31.5402 121.009L30.2473 121.039L30.5059 122.305L29.6764 121.314L28.8469 122.305L29.1055 121.039L27.8126 121.009L28.9645 120.422L28.1817 119.393L29.3596 119.927L29.6764 118.674Z" fill="white" fill-opacity="0.04"/>
<path d="M111.882 108.169L112.199 109.421L113.377 108.888L112.594 109.916L113.746 110.504L112.453 110.534L112.712 111.8L111.882 110.808L111.053 111.8L111.312 110.534L110.019 110.504L111.171 109.916L110.388 108.888L111.566 109.421L111.882 108.169Z" fill="white" fill-opacity="0.04"/>
<path d="M89.4195 108.169L90.2908 111.3L93.5298 109.966L91.3772 112.538L94.545 114.006L90.9895 114.081L91.7005 117.246L89.4195 114.768L87.1384 117.246L87.8494 114.081L84.2939 114.006L87.4617 112.538L85.3091 109.966L88.5482 111.3L89.4195 108.169Z" fill="white" fill-opacity="0.04"/>
<path d="M120.007 117.719L120.879 120.851L124.118 119.517L121.965 122.089L125.133 123.557L121.577 123.632L122.288 126.797L120.007 124.318L117.726 126.797L118.437 123.632L114.882 123.557L118.05 122.089L115.897 119.517L119.136 120.851L120.007 117.719Z" fill="white" fill-opacity="0.14"/>
<path d="M58.3528 65.191L59.9369 71.1417L65.8262 68.6071L61.9124 73.4929L67.6719 76.283L61.2073 76.4248L62.5002 82.4386L58.3528 77.7297L54.2054 82.4386L55.4982 76.4248L49.0336 76.283L54.7932 73.4929L50.8794 68.6071L56.7686 71.1417L58.3528 65.191Z" fill="white" fill-opacity="0.15"/>
<path d="M59.3084 87.1573L60.4173 91.542L64.5397 89.6744L61.8001 93.2745L65.8318 95.3303L61.3066 95.4348L62.2116 99.866L59.3084 96.3963L56.4052 99.866L57.3102 95.4348L52.7849 95.3303L56.8166 93.2745L54.077 89.6744L58.1994 91.542L59.3084 87.1573Z" fill="white" fill-opacity="0.12"/>
<path d="M33.0222 97.6629L33.7351 100.482L36.3852 99.2811L34.624 101.595L37.2158 102.917L34.3067 102.984L34.8885 105.833L33.0222 103.602L31.1558 105.833L31.7376 102.984L28.8285 102.917L31.4204 101.595L29.6591 99.2811L32.3093 100.482L33.0222 97.6629Z" fill="white" fill-opacity="0.1"/>
<path d="M41.6247 123.449L42.3376 126.268L44.9877 125.068L43.2265 127.382L45.8183 128.704L42.9093 128.771L43.4911 131.619L41.6247 129.389L39.7584 131.619L40.3402 128.771L37.4311 128.704L40.0229 127.382L38.2617 125.068L40.9118 126.268L41.6247 123.449Z" fill="white" fill-opacity="0.1"/>
<path d="M22.5071 98.618L22.7447 99.5576L23.6281 99.1574L23.041 99.9288L23.9049 100.369L22.9353 100.392L23.1292 101.341L22.5071 100.598L21.885 101.341L22.0789 100.392L21.1092 100.369L21.9731 99.9288L21.3861 99.1574L22.2694 99.5576L22.5071 98.618Z" fill="#C4C4C4" fill-opacity="0.1"/>
<path d="M36.8459 114.854L37.0836 115.794L37.9669 115.393L37.3799 116.165L38.2438 116.605L37.2741 116.628L37.468 117.577L36.8459 116.834L36.2238 117.577L36.4177 116.628L35.4481 116.605L36.312 116.165L35.7249 115.393L36.6083 115.794L36.8459 114.854Z" fill="#C4C4C4" fill-opacity="0.1"/>
<path d="M48.3166 93.8427L48.5543 94.7823L49.4376 94.3821L48.8506 95.1535L49.7145 95.5941L48.7448 95.6165L48.9387 96.566L48.3166 95.8225L47.6945 96.566L47.8884 95.6165L46.9188 95.5941L47.7827 95.1535L47.1956 94.3821L48.079 94.7823L48.3166 93.8427Z" fill="#C4C4C4" fill-opacity="0.1"/>
<path d="M76.9924 76.6517L77.23 77.5912L78.1134 77.1911L77.5264 77.9625L78.3903 78.403L77.4206 78.4254L77.6145 79.375L76.9924 78.6315L76.3703 79.375L76.5642 78.4254L75.5945 78.403L76.4585 77.9625L75.8714 77.1911L76.7548 77.5912L76.9924 76.6517Z" fill="#C4C4C4" fill-opacity="0.1"/>
<path d="M112.361 69.9663L112.598 70.9059L113.482 70.5057L112.895 71.2771L113.758 71.7177L112.789 71.7401L112.983 72.6896L112.361 71.9461L111.738 72.6896L111.932 71.7401L110.963 71.7177L111.827 71.2771L111.24 70.5057L112.123 70.9059L112.361 69.9663Z" fill="#C4C4C4" fill-opacity="0.1"/>
<path d="M72.2131 105.303L72.4507 106.243L73.3341 105.843L72.7471 106.614L73.611 107.055L72.6413 107.077L72.8352 108.027L72.2131 107.283L71.591 108.027L71.7849 107.077L70.8152 107.055L71.6792 106.614L71.0921 105.843L71.9755 106.243L72.2131 105.303Z" fill="#C4C4C4" fill-opacity="0.1"/>
<path d="M84.6399 98.618L84.8775 99.5576L85.7609 99.1574L85.1738 99.9288L86.0378 100.369L85.0681 100.392L85.262 101.341L84.6399 100.598L84.0178 101.341L84.2117 100.392L83.242 100.369L84.1059 99.9288L83.5189 99.1574L84.4023 99.5576L84.6399 98.618Z" fill="#C4C4C4" fill-opacity="0.1"/>
<path d="M123.831 103.393L124.069 104.333L124.952 103.933L124.365 104.704L125.229 105.145L124.259 105.167L124.453 106.117L123.831 105.373L123.209 106.117L123.403 105.167L122.433 105.145L123.297 104.704L122.71 103.933L123.594 104.333L123.831 103.393Z" fill="#C4C4C4" fill-opacity="0.1"/>
<path d="M102.801 118.674L103.039 119.614L103.922 119.214L103.335 119.985L104.199 120.425L103.229 120.448L103.423 121.397L102.801 120.654L102.179 121.397L102.373 120.448L101.403 120.425L102.267 119.985L101.68 119.214L102.563 119.614L102.801 118.674Z" fill="#C4C4C4" fill-opacity="0.1"/>
<path d="M78.4269 82.382L79.219 85.5139L82.1636 84.18L80.2067 86.7514L83.0865 88.2199L79.8542 88.2945L80.5006 91.4597L78.4269 88.9813L76.3532 91.4597L76.9996 88.2945L73.7673 88.2199L76.6471 86.7514L74.6902 84.18L77.6348 85.5139L78.4269 82.382Z" fill="white" fill-opacity="0.14"/>
<path d="M124.309 88.1124L125.101 91.2443L128.045 89.9103L126.089 92.4818L128.968 93.9502L125.736 94.0249L126.382 97.19L124.309 94.7116L122.235 97.19L122.881 94.0249L119.649 93.9502L122.529 92.4818L120.572 89.9103L123.517 91.2443L124.309 88.1124Z" fill="white" fill-opacity="0.2"/>
<path d="M92.7644 69.9663L93.8733 74.351L97.9958 72.4834L95.2561 76.0835L99.2878 78.1393L94.7626 78.2438L95.6676 82.675L92.7644 79.2053L89.8612 82.675L90.7662 78.2438L86.241 78.1393L90.2727 76.0835L87.533 72.4834L91.6555 74.351L92.7644 69.9663Z" fill="white" fill-opacity="0.04"/>
<path d="M66.9558 48.9551L68.0647 53.3398L72.1872 51.4722L69.4475 55.0722L73.4792 57.1281L68.954 57.2326L69.859 61.6638L66.9558 58.1941L64.0526 61.6638L64.9576 57.2326L60.4324 57.1281L64.4641 55.0722L61.7245 51.4722L65.8469 53.3398L66.9558 48.9551Z" fill="white" fill-opacity="0.1"/>
<path d="M124.308 57.5505L125.417 61.9352L129.54 60.0677L126.8 63.6677L130.832 65.7236L126.307 65.8281L127.212 70.2593L124.308 66.7895L121.405 70.2593L122.31 65.8281L117.785 65.7236L121.817 63.6677L119.077 60.0677L123.199 61.9352L124.308 57.5505Z" fill="white" fill-opacity="0.1"/>
<path d="M20.1179 80.4719L21.2269 84.8566L25.3493 82.989L22.6097 86.5891L26.6413 88.645L22.1161 88.7495L23.0211 93.1806L20.1179 89.7109L17.2147 93.1806L18.1197 88.7495L13.5945 88.645L17.6262 86.5891L14.8866 82.989L19.009 84.8566L20.1179 80.4719Z" fill="white" fill-opacity="0.12"/>
<path d="M94.6765 51.8203L95.7854 56.2049L99.9079 54.3374L97.1683 57.9374L101.2 59.9933L96.6747 60.0978L97.5797 64.529L94.6765 61.0592L91.7733 64.529L92.6783 60.0978L88.1531 59.9933L92.1848 57.9374L89.4452 54.3374L93.5676 56.2049L94.6765 51.8203Z" fill="white" fill-opacity="0.2"/>
<path d="M95.6326 89.0674L96.7415 93.4521L100.864 91.5846L98.1243 95.1846L102.156 97.2405L97.6308 97.345L98.5358 101.776L95.6326 98.3064L92.7294 101.776L93.6344 97.345L89.1092 97.2405L93.1409 95.1846L90.4012 91.5846L94.5237 93.4521L95.6326 89.0674Z" fill="white" fill-opacity="0.12"/>
<path d="M109.971 76.6517L110.763 79.7836L113.708 78.4496L111.751 81.0211L114.63 82.4896L111.398 82.5642L112.045 85.7293L109.971 83.2509L107.897 85.7293L108.544 82.5642L105.311 82.4896L108.191 81.0211L106.234 78.4496L109.179 79.7836L109.971 76.6517Z" fill="white" fill-opacity="0.04"/>
<path d="M110.926 56.5955L111.56 59.1011L113.915 58.0339L112.35 60.091L114.654 61.2658L112.068 61.3255L112.585 63.8576L110.926 61.8749L109.267 63.8576L109.784 61.3255L107.198 61.2658L109.502 60.091L107.937 58.0339L110.292 59.1011L110.926 56.5955Z" fill="white" fill-opacity="0.12"/>
<path d="M38.2794 79.5168L39.0715 82.6488L42.0161 81.3148L40.0592 83.8862L42.939 85.3547L39.7067 85.4294L40.3531 88.5945L38.2794 86.1161L36.2057 88.5945L36.8521 85.4294L33.6198 85.3547L36.4996 83.8862L34.5427 81.3148L37.4873 82.6488L38.2794 79.5168Z" fill="white" fill-opacity="0.2"/>
<path d="M110.448 91.9326L111.003 94.1249L113.064 93.1911L111.694 94.9911L113.71 96.0191L111.447 96.0713L111.9 98.2869L110.448 96.552L108.997 98.2869L109.449 96.0713L107.186 96.0191L109.202 94.9911L107.832 93.1911L109.894 94.1249L110.448 91.9326Z" fill="white" fill-opacity="0.1"/>
<path d="M123.831 74.7416L124.385 76.9339L126.447 76.0001L125.077 77.8002L127.093 78.8281L124.83 78.8803L125.283 81.0959L123.831 79.3611L122.379 81.0959L122.832 78.8803L120.569 78.8281L122.585 77.8002L121.215 76.0001L123.276 76.9339L123.831 74.7416Z" fill="white" fill-opacity="0.04"/>
<path d="M70.3016 115.809L70.8561 118.001L72.9173 117.068L71.5475 118.868L73.5634 119.895L71.3007 119.948L71.7532 122.163L70.3016 120.428L68.85 122.163L69.3025 119.948L67.0399 119.895L69.0558 118.868L67.686 117.068L69.7472 118.001L70.3016 115.809Z" fill="white" fill-opacity="0.2"/>
</svg>
